<?xml version="1.0" encoding="UTF-8"?>
<svg id="_图层_1" data-name="图层 1" xmlns="http://www.w3.org/2000/svg" xmlns:xlink="http://www.w3.org/1999/xlink" viewBox="0 0 64 64">
  <defs>
    <linearGradient id="_未命名的渐变_19" data-name="未命名的渐变 19" x1="20.87" y1="57.17" x2="44.26" y2="16.65" gradientUnits="userSpaceOnUse">
      <stop offset="0" stop-color="#197bf9"/>
      <stop offset="1" stop-color="#35b8ff"/>
    </linearGradient>
  </defs>
  <path d="M26.1,34.12c1.03,0,1.87.84,1.87,1.87s-.84,1.87-1.87,1.87-1.87-.84-1.87-1.87.84-1.87,1.87-1.87h0ZM31.8,20.3c-4.54,0-8.66,1.72-11.65,4.51-1.77,1.65-3.15,3.66-3.99,5.91-2.21,0-5.18.43-7.69,1.94-2.78,1.67-4.96,4.53-5.07,9.3v.2c-.09,8.78,7.93,11.39,9.52,11.82.26.09.55.14.84.14h36.45s.01-.01.01-.01c9.3-.06,10.25-13.01,10.34-14.72.01-.1.02-.21.02-.31,0-.51-.14-1.19-.56-1.81-.48-.71-1.25-1.27-2.41-1.34h0s-.54-.02-.54-.02h-8.71s0,0,0,0h-5.16c0,2.85-1.25,5.43-3.27,7.31-2.07,1.93-4.95,3.12-8.14,3.12s-6.07-1.19-8.14-3.12c-2.02-1.88-3.27-4.47-3.27-7.32s1.25-5.44,3.27-7.32c2.07-1.93,4.95-3.12,8.14-3.12s6.07,1.19,8.14,3.12c.68.64,1.28,1.35,1.77,2.13h5.73c-.84-2.25-2.22-4.26-3.99-5.9-2.99-2.79-7.12-4.51-11.65-4.51h0ZM47.44,41.09h7.8c-.4,2.91-1.59,7.84-5.02,7.88h0s-9.34,0-9.34,0c.92-.57,1.79-1.23,2.57-1.96,1.77-1.65,3.14-3.66,3.99-5.91h0ZM22.72,48.96h-8.66c-1.15-.33-5.56-1.91-5.52-6.75v-.15c.06-2.61,1.18-4.13,2.59-4.98,1.26-.76,2.77-1.08,4.09-1.18h0c0,4.35,1.88,8.27,4.93,11.1.78.73,1.64,1.39,2.57,1.96h0ZM11.07,28.93c-.45,1.35-1.9,2.08-3.25,1.63-1.35-.45-2.08-1.9-1.63-3.25,0,0,.17-.5.49-1.31,1.07-2.7,3.82-8.15,9.73-11.98,3.71-2.4,8.62-4.15,15.06-4.15,20.7,0,26.63,20.71,26.65,20.76l.02.07h-5.41c-1.14-3.17-6.55-15.67-21.25-15.67-5.32,0-9.3,1.39-12.25,3.3-4.68,3.03-6.88,7.4-7.74,9.56l-.41,1.03h0ZM31.99,34.14c1.03,0,1.87.84,1.87,1.87s-.84,1.87-1.87,1.87-1.87-.84-1.87-1.87.84-1.87,1.87-1.87h0ZM37.88,34.15c1.03,0,1.87.84,1.87,1.87s-.84,1.87-1.87,1.87-1.87-.84-1.87-1.87.84-1.87,1.87-1.87Z" style="fill: url(#_未命名的渐变_19); fill-rule: evenodd;"/>
</svg>