<?xml version="1.0" encoding="UTF-8"?>
<svg id="_图层_1" data-name="图层 1" xmlns="http://www.w3.org/2000/svg" xmlns:xlink="http://www.w3.org/1999/xlink" viewBox="0 0 64 64">
  <defs>
    <linearGradient id="_未命名的渐变_19" data-name="未命名的渐变 19" x1="144.3" y1="261.34" x2="165.5" y2="235.38" gradientTransform="translate(-159.83 -186.81) rotate(-9.23)" gradientUnits="userSpaceOnUse">
      <stop offset="0" stop-color="#197bf9"/>
      <stop offset="1" stop-color="#35b8ff"/>
    </linearGradient>
    <linearGradient id="_未命名的渐变_19-2" data-name="未命名的渐变 19" x1="134.84" y1="272.34" x2="173.3" y2="225.23" gradientTransform="translate(-159.99 -188.84) rotate(-9.23)" xlink:href="#_未命名的渐变_19"/>
  </defs>
  <path d="M25.77,19.81c-.45,2.31-1.1,4.71-1.91,7.04l3.28,20.15-3.37.55-2.42-14.91c-.42.8-.87,1.58-1.31,2.26-.47-.81-1.77-2.62-2.5-3.36,2.15-3.16,3.97-7.74,4.74-12.24l3.51.5ZM34.71,27.6c.64,7.48-.07,14.08-4.92,19.04-.72-.86-2.02-1.9-3.05-2.38,4.4-4.2,5-9.72,4.45-16.08l-5.78.94-.54-3.34,5.96-.97c-.27-2.07-.62-4.21-.98-6.42l3.55-.58c.35,2.18.68,4.36.95,6.42l6.11-.99c-.98-1.13-2.86-2.72-4.39-3.85l2.19-2.16c1.52,1.07,3.58,2.63,4.58,3.72l-2.17,2.25,3.79-.62.54,3.34-10.28,1.67ZM43.6,40.29c.72-.12.73-.79.21-4.75.81.48,2.4.83,3.33.93.51,5-.09,6.59-2.68,7.01l-2.8.46c-2.95.48-3.88-.5-4.42-3.84l-1.75-10.79,3.46-.56,1.75,10.79c.17,1.04.31,1.17,1,1.06l1.91-.31Z" style="fill: url(#_未命名的渐变_19);"/>
  <path d="M12.3,55.07c-.91,0-1.79-.28-2.54-.82-.95-.68-1.57-1.69-1.76-2.84l-2.01-12.38,2.2-.36c.73-.12,1.37-.51,1.8-1.11.43-.6.6-1.33.48-2.06-.12-.73-.51-1.37-1.11-1.8-.6-.43-1.33-.6-2.06-.49l-2.2.36-2.01-12.38c-.19-1.15.09-2.3.77-3.25.68-.95,1.69-1.57,2.84-1.76l44.29-7.2c2.38-.39,4.62,1.23,5.01,3.61l2.01,12.38-2.2.36c-.73.12-1.37.51-1.8,1.11-.43.6-.6,1.33-.49,2.06.12.73.51,1.37,1.11,1.8.6.43,1.33.6,2.06.49l2.2-.36,2.01,12.38c.19,1.15-.09,2.3-.77,3.25-.68.95-1.69,1.57-2.84,1.76l-44.29,7.2c-.24.04-.47.06-.71.06ZM11.06,42.37l1.34,8.22,44.09-7.17-1.34-8.22c-3.01-.47-5.52-2.82-6.03-5.98-.31-1.91.14-3.82,1.27-5.38.68-.94,1.55-1.69,2.56-2.21l-1.34-8.22L7.51,20.58l1.34,8.22c3.01.47,5.52,2.82,6.03,5.98.31,1.91-.14,3.82-1.27,5.38-.68.94-1.55,1.69-2.56,2.21Z" style="fill: url(#_未命名的渐变_19-2);"/>
</svg>