<?xml version="1.0" encoding="UTF-8"?>
<svg id="_图层_1" data-name="图层 1" xmlns="http://www.w3.org/2000/svg" xmlns:xlink="http://www.w3.org/1999/xlink" viewBox="0 0 64 64">
  <defs>
    <linearGradient id="_未命名的渐变_19" data-name="未命名的渐变 19" x1="18.23" y1="55.84" x2="45.77" y2="8.16" gradientUnits="userSpaceOnUse">
      <stop offset="0" stop-color="#197bf9"/>
      <stop offset="1" stop-color="#35b8ff"/>
    </linearGradient>
  </defs>
  <path d="M32,3.6c7.84,0,14.94,3.18,20.09,8.32,5.14,5.14,8.32,12.24,8.32,20.08,0,6.39-2.11,12.29-5.68,17.04l-4.04-4.04c2.57-3.68,4.07-8.16,4.07-13,0-6.28-2.55-11.97-6.67-16.09-4.12-4.12-9.81-6.66-16.09-6.66-4.83,0-9.31,1.5-12.99,4.07l-4.04-4.04c4.75-3.56,10.65-5.68,17.04-5.68h0ZM38.82,28.99l1.63-.79,3.63,2.69v7.03l-5.93,3.42-3.91-3.46-.06-12.13c0-.61-.26-1.16-.66-1.56l-5.84-5.68c-.75-.73-1.88-.81-2.72-.27l-8.28,4.97c-.71.42-1.09,1.18-1.06,1.95l-.06,8.83c0,.73.35,1.37.89,1.77l5.74,4.32c.66.5,1.52.56,2.22.24l2.82-1.28c1.1-.5,1.58-1.8,1.08-2.9-.5-1.1-1.8-1.58-2.9-1.08l-1.63.74-3.83-2.88.04-6.58,5.85-3.51,3.98,3.87.06,12.18c0,.6.25,1.2.74,1.64l5.82,5.15c.68.61,1.7.74,2.54.26l8.22-4.74c.76-.35,1.28-1.11,1.28-2v-9.39h0c0-.67-.31-1.33-.89-1.76l-5.51-4.09c-.64-.52-1.54-.65-2.33-.27l-2.82,1.36c-1.09.53-1.55,1.84-1.02,2.93.53,1.09,1.84,1.55,2.93,1.02h0ZM49.03,54.73l-4.04-4.04c-3.68,2.56-8.16,4.07-12.99,4.07-6.29,0-11.97-2.55-16.09-6.66-4.12-4.12-6.67-9.81-6.67-16.09,0-4.83,1.5-9.31,4.07-12.99l-4.04-4.04c-3.56,4.75-5.67,10.64-5.67,17.03,0,7.84,3.18,14.94,8.32,20.08,5.14,5.14,12.24,8.32,20.09,8.32,6.39,0,12.29-2.11,17.03-5.67Z" style="fill: url(#_未命名的渐变_19); fill-rule: evenodd;"/>
</svg>