<?xml version="1.0" encoding="UTF-8"?>
<svg id="_图层_1" data-name="图层 1" xmlns="http://www.w3.org/2000/svg" xmlns:xlink="http://www.w3.org/1999/xlink" viewBox="0 0 64 64">
  <defs>
    <linearGradient id="_未命名的渐变_19" data-name="未命名的渐变 19" x1="19.43" y1="59.1" x2="44.75" y2="15.23" gradientUnits="userSpaceOnUse">
      <stop offset="0" stop-color="#197bf9"/>
      <stop offset="1" stop-color="#35b8ff"/>
    </linearGradient>
  </defs>
  <path d="M10.91,28.42c-.98.99-2.42,1.38-3.55.55-1.13-.83-1.38-2.42-.55-3.55.69-.94,3.69-3.24,7.22-5.75v-8.14c0-1.4,1.14-2.54,2.54-2.54s2.54,1.14,2.54,2.54v4.61c3.27-2.23,6.31-4.22,7.75-5.08l.49-.29c4.25-2.54,4.91-2.94,9.86.13,1.95,1.21,6.23,3.87,10.53,7.23,4.24,3.31,8.51,7.31,10.7,11.36h-6.08c-2-2.55-4.86-5.11-7.74-7.36-4.08-3.19-8.2-5.75-10.07-6.91-2.32-1.44-2.63-1.26-4.58-.09l-.51.31c-2.16,1.28-7.72,4.98-12.27,8.21-3.23,2.29-5.91,4.27-6.28,4.78h0ZM31.93,31.27c2.01,0,3.64,1.63,3.64,3.64s-1.63,3.64-3.64,3.64-3.64-1.63-3.64-3.64,1.63-3.64,3.64-3.64h0ZM15.02,37.3c-2.17.35-6.18,1.67-6.17,6.56.02,6.93,10.11,6.21,10.13,6.21.79-.05,1.7,0,2.51,0-.14-.1-.28-.2-.42-.31-.06-.05-.12-.09-.17-.14-2.84-2.19-5.19-5.63-5.77-10.89-.05-.46-.09-.94-.11-1.43h0ZM3.77,43.86c.03,12.39,15.4,11.3,15.51,11.29l27.9.02c1.85.25,13.21,1.09,13.04-16.16-.02-1.84-1.02-2.97-2.45-3.65-1.24-.59-2.83-.73-4-.73-2.6,0-5.19,0-7.79.02-1.37,0-4.35,1.61-5.38,2.56-3.41,3.15-3.97,6.91-6.32,9.25-1.18,1.18-2.63,1.49-4.23,1.38-1.7-.11-3.99-.69-5.95-2.15-2.41-1.67-3.62-4.67-3.93-7.49-.11-1.02-.14-2.15-.05-3.39.44-5.57,7.06-9.16,12.09-8.76,2.73.21,4.92.97,6.69,2.07.66.41,1.27.87,1.82,1.37h6.62c-1.45-2.2-3.33-4.18-5.75-5.69-2.71-1.69-5.94-2.64-9.12-2.83-6.89-.46-15.32,4.13-17.07,11.18-2.9.26-11.67,1.88-11.64,11.72h0ZM37.86,50.09l.03-.02c2.73-2.73,3.18-6.34,6.18-9.11.13-.12,1.93-1.22,1.95-1.22,2.39-.02,7.01-.03,9.1.03-.17,11.28-6.68,10.27-7.26,10.28-2.02.06-7.71.05-9.99.05Z" style="fill: url(#_未命名的渐变_19); fill-rule: evenodd;"/>
</svg>