<?xml version="1.0" encoding="UTF-8"?>
<svg id="_图层_1" data-name="图层 1" xmlns="http://www.w3.org/2000/svg" xmlns:xlink="http://www.w3.org/1999/xlink" viewBox="0 0 64 64">
  <defs>
    <linearGradient id="_未命名的渐变_19" data-name="未命名的渐变 19" x1="15.76" y1="58.63" x2="41.97" y2="13.23" gradientUnits="userSpaceOnUse">
      <stop offset="0" stop-color="#197bf9"/>
      <stop offset="1" stop-color="#35b8ff"/>
    </linearGradient>
  </defs>
  <path d="M13.91,24.74l.03-16.92c0-1.32,1.07-2.39,2.39-2.39h11.48c.45,0,.87.13,1.23.34h0s7.84,4.73,7.84,4.73c.8.48,1.22,1.36,1.15,2.24l-.02,8.03,13.2,6.67c.83.42,1.31,1.26,1.31,2.14h0v19.34c0,1.05-.67,1.94-1.61,2.27l-16.77,7.19c-.35.15-.72.21-1.07.19l-16.78.02c-1.32,0-2.39-1.07-2.39-2.39v-12.11s4.77,0,4.77,0v9.72s14.03-.02,14.03-.02l15.02-6.44v-16.29l-13.19-6.66h0c-.78-.4-1.31-1.2-1.31-2.14l.02-8.34-2.47-1.49v15.79l10.87,6.26c.77.44,1.2,1.24,1.2,2.07v7.54c.01,1-.61,1.86-1.49,2.22l-12.08,4.84c-1.23.49-2.62-.1-3.11-1.33-.12-.29-.17-.59-.17-.89h0v-9.92c0-1.32,1.07-2.4,2.4-2.4s2.4,1.07,2.4,2.4v6.38l7.3-2.92v-4.55s-10.69-6.16-10.69-6.16c-.83-.38-1.4-1.21-1.4-2.18V10.2h-7.28s-.03,14.53-.03,14.53h-4.78ZM11.48,33.07v2.66h9.64v-2.66h-9.64ZM11.49,29.53v2.65h9.62s0-2.64,0-2.64h-9.62ZM11.46,36.61v2.65h9.67s0-2.65,0-2.65h-9.67Z" style="fill: url(#_未命名的渐变_19); fill-rule: evenodd;"/>
</svg>