<?xml version="1.0" encoding="UTF-8"?>
<svg id="_图层_1" data-name="图层 1" xmlns="http://www.w3.org/2000/svg" xmlns:xlink="http://www.w3.org/1999/xlink" viewBox="0 0 64 64">
  <defs>
    <linearGradient id="_未命名的渐变_19" data-name="未命名的渐变 19" x1="21.16" y1="54.68" x2="44.31" y2="14.59" gradientUnits="userSpaceOnUse">
      <stop offset="0" stop-color="#197bf9"/>
      <stop offset="1" stop-color="#35b8ff"/>
    </linearGradient>
  </defs>
  <path d="M12.31,18.69c-.03.3-.9.28-1.27.11-.33-.15-.58-.87-.34-1.25.18-.28.88-.26,1.12-.11.22.14.49.53.48,1.25ZM41.01,39.78c2.54-1.38,4.88-2.68,7.8-3.42-1.77-1.58-3.56-3.01-5.82-3.99-3.68,1.09-6.92,2.6-10.25,4.42-6.37,3.47-12.01,7.81-16.69,13.59l3.32.82,7.39.61c3.98-5.07,8.72-9.04,14.24-12.03ZM34.19,19.94c.38-.01.64.01,1.02-.12l-1.89-2.3-3.99-4.51c-1.44,1.94-3.19,3.46-4.85,5.24-.56.6-1.01,1.17-1.71,1.55l1.78.15-.14,7.03c.51.04.95,0,1.46-.1l.1-4.38,2.89.44.08,3.79c.51.08.94.06,1.48-.03l.09-3.69c.7-.32,1.5-.41,2.17-.12l.07,3.97,7.99-.08c6.92-.07,13.5.75,20.26,3.28l-1.06-3.2c-.76-2.29-3.43-4.31-5.53-2.82-.3-3.29-2.54-6.01-5.9-6.34-2.98-.29-5.55,1.68-6.65,4.33-.18.42-.33.88-.57.88h-1.07c-1.14.37-2.64.33-3.41,1.11l-2.8,2.82-.08-6.76.27-.12ZM33.69,19.9l-8.81-.04,3.9-3.98.17.17-2.71,3.16,6.04.05c-.99-1.39-2.05-2.62-3.14-3.35l-.16-.22c.07-.17.23-.29.32-.31.1-.01.27.07.4.2l2.37,2.43c.62.63,1.12,1.36,1.85,1.74l-.22.14ZM49.57,44.77c3.56-2.84,7.66-4.82,12.12-5.9l.31-2.8-3.43.1c-2.03.06-3.87.45-5.83,1.01-4.98,1.62-9.5,4.18-13.42,7.65-2.72,2.26-5.16,4.57-7.33,7.48h10.67c1.92-3.01,4.34-5.2,6.91-7.56ZM24.27,38.22c-2.69-1.44-5.51-1.81-8.42-2.06-4.41-.38-9.63-.14-13.64,1.5.45,5.07,4.73,9.43,9.28,11.24l2.8-2.99c3.07-2.85,6.36-5.29,9.98-7.7ZM26.89,36.38c4.44-2.29,8.98-4.16,13.87-5.18-5.05-2.23-10.08-2.88-15.42-2.62-3.64.18-7.1,1.22-10.5,2.61l-7.1,2.91c3.28-.29,6.5-.48,9.83-.08s6.2,1.41,9.32,2.35ZM16.94,29.54c.49-.19,1.09-.5,1.49-.82.25-.2-.06-1.05-.37-1.26-.69.41-1.48.72-2.18.59l-.1-5.88c-.01-.71.02-1.32-.03-2.03l-.31-4.28c-.03-.36-.2-.57-.61-.43-.13,2.75.25,5.44.22,8.23l-.05,4.51c-.73-.71-.68-1.41-1.18-1.64-.58-.26-1.29-.15-1.86-.21-.5-1.24-1.55-1.91-2.9-1.85-1.52.07-2.5.99-3.61,1.88-1.39,1.11-2.1,2.5-1.34,4.47-.52.19-1.39.32-1.71.75-.54,1.42-.4,2.83-.33,4.51l4.77-1.96c3.36-1.83,6.65-3.26,10.11-4.57ZM61.25,31.75l-6.19-1.26h-7.51s-3.53,1-3.53,1c2.6,1.2,4.83,2.36,6.73,4.34,3.76-.71,7.3-1,11.11-.83-.06-1.43-.31-2.18-.6-3.25ZM47.32,51.74c8.12.07,11.82-4.25,13.95-11.16-6.02,1.76-10.91,5.78-13.95,11.16ZM13.95,13.16c-.15.56.1,1.32.65,1.79.29.25,1.11-.06,1.33-.36.69-.91.3-2.02-.73-2.92-.67.39-1.08.89-1.25,1.48ZM17.23,13.73l-1.35,2.91c1.17-.16,2.65-.75,2.84-2,.08-.53-1.32-1.28-1.49-.91ZM12.78,13.66c-.77,0-1.21.64-1.04,1.33.21.91,1.74,1.68,2.31,1.13.11-1.14-.78-1.87-1.27-2.46ZM11.87,19.82c-.16.27-.14.65,0,1.06.56.61,1.3.9,2.48.43-.68-1.51-2.05-2.19-2.47-1.49ZM18.58,20.66c.36-.32.29-.97.03-1.13-.34-.22-.96-.17-1.21.21l-1.27,1.91c1.12-.05,1.85-.47,2.45-.99ZM17.51,18.44c.16-.51.2-1.05-.23-1.58-.75.52-1.25,1.3-1.19,2.32.69.11,1.26-.26,1.42-.74ZM18.39,17.25c-.41.26-.28,1.45.25,1.56.57.11,1.02-.51,1.12-1.05-.2-.39-.9-.79-1.36-.51ZM13.11,17.05c-.57.7-.39,1.47.17,1.97l1.14-.79c-.42-.61-.77-.94-1.31-1.18Z" style="fill: url(#_未命名的渐变_19);"/>
</svg>