<?xml version="1.0" encoding="UTF-8"?>
<svg id="_图层_1" data-name="图层 1" xmlns="http://www.w3.org/2000/svg" xmlns:xlink="http://www.w3.org/1999/xlink" viewBox="0 0 64 64">
  <defs>
    <linearGradient id="_未命名的渐变_19" data-name="未命名的渐变 19" x1="19.3" y1="53.78" x2="44.38" y2="10.32" gradientUnits="userSpaceOnUse">
      <stop offset="0" stop-color="#197bf9"/>
      <stop offset="1" stop-color="#35b8ff"/>
    </linearGradient>
    <linearGradient id="_未命名的渐变_19-2" data-name="未命名的渐变 19" x1="24.87" y1="44.79" x2="39.43" y2="19.58" xlink:href="#_未命名的渐变_19"/>
    <linearGradient id="_未命名的渐变_19-3" data-name="未命名的渐变 19" x1="32.41" y1="37.16" x2="41.82" y2="20.87" xlink:href="#_未命名的渐变_19"/>
  </defs>
  <path d="M32.28,3.33c1.79,1.51,3.94,2.45,5.94,3.62,5.83,3.41,11.69,6.76,17.57,10.08.94.53,1.26,1.13,1.25,2.19-.04,8.61-.05,17.23,0,25.85,0,1.16-.41,1.72-1.38,2.27-7.54,4.29-15.06,8.62-22.55,12.99-.85.5-1.45.41-2.24-.05-7.46-4.33-14.93-8.62-22.41-12.92-.48-.28-.9-.72-1.52-.71v-28.98c2.71-1.18,5.15-2.82,7.7-4.28,5.79-3.32,11.54-6.7,17.31-10.05.1,0,.21,0,.31,0ZM51.99,32.26c0-3.43-.03-6.85.02-10.28.01-.94-.26-1.47-1.11-1.96-5.97-3.38-11.91-6.8-17.84-10.26-.71-.41-1.21-.5-1.96-.06-6.01,3.51-12.05,6.98-18.1,10.43-.66.38-.96.77-.96,1.57.03,6.96.03,13.91,0,20.87,0,.77.23,1.2.91,1.59,6.09,3.47,12.17,6.98,18.24,10.5.61.36,1.06.36,1.69,0,6.02-3.51,12.04-6.99,18.1-10.42.82-.46,1.02-.99,1.01-1.85-.04-3.37-.02-6.75-.02-10.12Z" style="fill: url(#_未命名的渐变_19);"/>
  <path d="M37.38,18.41c-4.64,2.71-9.06,5.34-13.53,7.88-.94.53-1.32,1.09-1.27,2.18.14,2.69.18,5.4.18,8.1,0,.94.28,1.51,1.15,1.95,2.17,1.11,4.31,2.29,6.42,3.53.74.43,1.26.37,1.97-.04,4.68-2.68,9.39-5.31,14.37-8.12,0,2.22,0,4.21,0,6.19,0,.6-.49.74-.88.97-4.27,2.47-8.56,4.92-12.83,7.41-.61.35-1.09.38-1.71.01-4.31-2.51-8.64-5-12.97-7.47-.57-.33-.77-.72-.77-1.37.02-4.98.03-9.97,0-14.95,0-.74.31-1.11.9-1.44,4.29-2.45,8.56-4.92,12.84-7.39.52-.3.95-.46,1.56-.08,1.4.88,2.86,1.67,4.55,2.64Z" style="fill: url(#_未命名的渐变_19-2);"/>
  <path d="M46.61,25.92c.48,1.63-.37,2.41-1.71,3.14-4.05,2.22-8.04,4.55-12.03,6.9-.85.5-1.56.73-2.38.07-.16-.13-.36-.2-.55-.3-2.22-1.16-2.9-2.68-2.35-5.09.11-.5.47-.65.82-.85,4.48-2.63,8.97-5.24,13.42-7.9.65-.39,1.1-.36,1.67.04.42.3.88.56,1.36.76,1.47.62,2.28,1.57,1.75,3.23Z" style="fill: url(#_未命名的渐变_19-3);"/>
</svg>